<svg xmlns="http://www.w3.org/2000/svg" xmlns:xlink="http://www.w3.org/1999/xlink" width="1080" zoomAndPan="magnify" viewBox="0 0 810 809.999993" height="1080" preserveAspectRatio="xMidYMid meet" version="1.0"><defs><clipPath id="8538387594"><path d="M 107 157 L 705 157 L 705 765.144531 L 107 765.144531 Z M 107 157 " clip-rule="nonzero"/></clipPath><clipPath id="293aa453b9"><path d="M 15.324219 765.402344 L 785 765.402344 L 785 771.730469 L 15.324219 771.730469 Z M 15.324219 765.402344 " clip-rule="nonzero"/></clipPath><clipPath id="6c7651e582"><path d="M 18.488281 765.402344 L 781.820312 765.402344 C 782.660156 765.402344 783.464844 765.738281 784.058594 766.332031 C 784.652344 766.921875 784.984375 767.726562 784.984375 768.566406 C 784.984375 769.40625 784.652344 770.210938 784.058594 770.804688 C 783.464844 771.398438 782.660156 771.730469 781.820312 771.730469 L 18.488281 771.730469 C 17.648438 771.730469 16.84375 771.398438 16.25 770.804688 C 15.65625 770.210938 15.324219 769.40625 15.324219 768.566406 C 15.324219 767.726562 15.65625 766.921875 16.25 766.332031 C 16.84375 765.738281 17.648438 765.402344 18.488281 765.402344 Z M 18.488281 765.402344 " clip-rule="nonzero"/></clipPath></defs><g clip-path="url(#8538387594)"><path fill="#dddddd" d="M 243.582031 752.96875 C 250.449219 762.121094 260.941406 766.945312 271.5625 766.945312 C 272.035156 766.945312 272.5 766.855469 272.96875 766.835938 L 272.96875 1165.082031 C 272.96875 1194.921875 297.160156 1219.09375 326.980469 1219.09375 C 356.808594 1219.09375 381 1194.921875 381 1165.082031 L 381 770.726562 L 401.246094 770.726562 L 401.246094 1165.082031 C 401.246094 1194.921875 425.433594 1219.09375 455.253906 1219.09375 C 485.082031 1219.09375 509.273438 1194.921875 509.273438 1165.082031 L 509.273438 464.320312 L 681.269531 404.285156 C 693.363281 400.066406 702.175781 389.570312 704.246094 376.9375 C 706.3125 364.296875 701.304688 351.542969 691.191406 343.6875 L 460.820312 164.777344 C 445.578125 152.9375 423.621094 155.695312 411.78125 170.945312 C 410.898438 172.082031 410.121094 173.269531 409.398438 174.476562 C 460.457031 183.195312 499.457031 227.738281 499.457031 281.242188 C 499.457031 281.914062 499.417969 282.574219 499.40625 283.242188 L 597.558594 359.472656 L 468.765625 404.425781 L 306.734375 404.425781 C 305.554688 404.425781 304.390625 404.488281 303.242188 404.605469 C 296.179688 404.753906 289.09375 407.003906 283.011719 411.574219 L 121.894531 532.597656 C 106.46875 544.1875 103.351562 566.082031 114.929688 581.515625 Z M 272.96875 506.535156 L 272.96875 675.679688 L 191.800781 567.503906 Z M 272.96875 506.535156 " fill-opacity="1" fill-rule="nonzero"/></g><path fill="#dddddd" d="M 391.117188 182.949219 C 336.835938 182.949219 292.824219 226.953125 292.824219 281.242188 C 292.824219 335.527344 336.835938 379.535156 391.117188 379.535156 C 445.410156 379.535156 489.410156 335.527344 489.410156 281.242188 C 489.410156 226.953125 445.410156 182.949219 391.117188 182.949219 Z M 451.105469 316.769531 C 397.625 302.007812 358.113281 331.019531 357.722656 331.3125 L 349.824219 320.855469 C 351.625 319.492188 394.703125 287.589844 454.59375 304.136719 Z M 451.105469 316.769531 " fill-opacity="1" fill-rule="nonzero"/><path fill="#dddddd" d="M 437.472656 126.339844 C 427.886719 122.394531 419.164062 122.105469 411.535156 125.480469 C 399.757812 130.695312 395.269531 142.800781 395.082031 143.316406 C 394.265625 145.578125 395.433594 148.066406 397.695312 148.894531 C 397.847656 148.949219 398.003906 148.996094 398.160156 149.035156 C 400.289062 149.558594 402.515625 148.402344 403.296875 146.300781 C 403.328125 146.210938 406.789062 137.097656 415.144531 133.441406 C 420.492188 131.097656 426.886719 131.425781 434.148438 134.417969 C 436.375 135.332031 438.929688 134.273438 439.851562 132.042969 C 440.769531 129.8125 439.703125 127.257812 437.472656 126.339844 Z M 437.472656 126.339844 " fill-opacity="1" fill-rule="nonzero"/><path fill="#dddddd" d="M 381.820312 134.894531 C 382.042969 134.988281 382.269531 135.0625 382.496094 135.117188 C 384.535156 135.617188 386.695312 134.582031 387.550781 132.59375 C 387.609375 132.449219 393.855469 118.226562 407.835938 112.835938 C 416.992188 109.304688 427.605469 110.238281 439.386719 115.636719 C 441.585938 116.628906 444.171875 115.671875 445.175781 113.480469 C 446.179688 111.285156 445.214844 108.695312 443.019531 107.691406 C 428.976562 101.269531 416.046875 100.269531 404.589844 104.722656 C 387.152344 111.5 379.8125 128.457031 379.507812 129.179688 C 378.566406 131.394531 379.605469 133.949219 381.820312 134.894531 Z M 381.820312 134.894531 " fill-opacity="1" fill-rule="nonzero"/><path fill="#dddddd" d="M 264.644531 184.738281 C 248.8125 148.882812 185.511719 133.71875 179.738281 167.199219 C 174.304688 198.707031 210.628906 176.820312 264.644531 184.738281 Z M 264.644531 184.738281 " fill-opacity="1" fill-rule="nonzero"/><path fill="#dddddd" d="M 308.433594 173.976562 C 320.40625 145.324219 294.601562 100.675781 272.210938 115.613281 C 251.140625 129.675781 283.527344 138.613281 308.433594 173.976562 Z M 308.433594 173.976562 " fill-opacity="1" fill-rule="nonzero"/><path fill="#dddddd" d="M 210.125 240.550781 C 210.46875 262.699219 232.386719 243.140625 270.179688 241.597656 C 254.800781 219.21875 209.757812 217.015625 210.125 240.550781 Z M 210.125 240.550781 " fill-opacity="1" fill-rule="nonzero"/><path fill="#dddddd" d="M 546.476562 169.695312 C 552.945312 172.113281 558.460938 168.6875 560.363281 163.59375 C 562.472656 157.949219 560.164062 152.382812 553.554688 149.914062 C 547.5 147.652344 541.726562 150.511719 539.722656 155.878906 C 537.664062 161.382812 539.734375 167.175781 546.476562 169.695312 Z M 546.476562 169.695312 " fill-opacity="1" fill-rule="nonzero"/><path fill="#dddddd" d="M 565.628906 138.585938 C 568.921875 129.777344 571.429688 128.519531 581.847656 125.824219 C 594.515625 122.558594 601.078125 117.167969 604.933594 106.847656 C 608.484375 97.351562 606.230469 83.648438 587.515625 76.65625 C 578.019531 73.109375 566.894531 72.246094 560.273438 72.75 L 552.816406 92.707031 L 567.40625 99.410156 L 570.390625 91.429688 C 571.109375 89.503906 572.210938 88.660156 573.550781 88.847656 C 575.546875 88.964844 577.746094 89.789062 580.085938 90.660156 C 585.453125 92.667969 587.917969 96.570312 585.859375 102.074219 C 583.1875 109.230469 578.371094 109.941406 570.808594 112.132812 C 560.289062 115.105469 554.667969 117.550781 551.449219 129.523438 L 548.710938 139.792969 L 563.160156 145.191406 Z M 565.628906 138.585938 " fill-opacity="1" fill-rule="nonzero"/><path fill="#dddddd" d="M 624.65625 160.640625 C 627.949219 151.832031 630.457031 150.574219 640.875 147.878906 C 653.542969 144.613281 660.105469 139.222656 663.960938 128.902344 C 667.511719 119.40625 665.257812 105.703125 646.542969 98.710938 C 637.042969 95.164062 625.917969 94.300781 619.300781 94.804688 L 611.84375 114.761719 L 626.433594 121.464844 L 629.414062 113.484375 C 630.136719 111.558594 631.234375 110.714844 632.574219 110.902344 C 634.570312 111.019531 636.773438 111.84375 639.113281 112.714844 C 644.480469 114.722656 646.945312 118.625 644.886719 124.128906 C 642.214844 131.285156 637.398438 131.996094 629.835938 134.1875 C 619.316406 137.160156 613.695312 139.605469 610.476562 151.578125 L 607.738281 161.847656 L 622.1875 167.246094 Z M 624.65625 160.640625 " fill-opacity="1" fill-rule="nonzero"/><path fill="#dddddd" d="M 598.746094 177.933594 C 596.691406 183.4375 598.761719 189.230469 605.503906 191.75 C 611.972656 194.167969 617.488281 190.742188 619.390625 185.648438 C 621.5 180.003906 619.1875 174.4375 612.582031 171.96875 C 606.527344 169.707031 600.753906 172.566406 598.746094 177.933594 Z M 598.746094 177.933594 " fill-opacity="1" fill-rule="nonzero"/><g clip-path="url(#293aa453b9)"><g clip-path="url(#6c7651e582)"><path fill="#dddddd" d="M 15.324219 765.402344 L 784.976562 765.402344 L 784.976562 771.730469 L 15.324219 771.730469 Z M 15.324219 765.402344 " fill-opacity="1" fill-rule="nonzero"/></g></g></svg>