<?xml version="1.0" encoding="UTF-8"?>
<svg version="1.1" xmlns="http://www.w3.org/2000/svg" width="3464" height="1132">
<path d="M0 0 C30.03 0 60.06 0 91 0 C91.33 74.58 91.66 149.16 92 226 C95.96 221.38 99.92 216.76 104 212 C137.41625312 175.69840775 183.02959611 156.60307795 232 154 C286.66215331 151.74006601 341.35757097 169.67924948 382.18139648 206.5546875 C384.31682188 208.52870146 386.42123913 210.53213575 388.50927734 212.55615234 C389.9496267 213.95121066 391.40619733 215.32946078 392.86328125 216.70703125 C411.60187655 234.80952147 425.91256119 257.56919004 437 281 C437.2976123 281.62181152 437.59522461 282.24362305 437.90185547 282.88427734 C466.61640163 343.43625673 468.78226012 416.98747903 447 480 C440.39976945 498.21818024 432.42013365 515.65396554 422 532 C421.31808594 533.0725 420.63617187 534.145 419.93359375 535.25 C415.65021586 541.82175786 411.03717131 547.99013354 406 554 C405.54044922 554.54978516 405.08089844 555.09957031 404.60742188 555.66601562 C396.31386075 565.55989884 387.94576547 574.63683702 377.828125 582.72265625 C376.0208834 584.17793505 374.23665987 585.66258871 372.484375 587.18359375 C332.39471729 621.6779158 276.36266401 634.26040432 224.69726562 630.77734375 C179.11534346 626.76455209 139.27381336 608.32637658 107 576 C106.35417969 575.38898437 105.70835938 574.77796875 105.04296875 574.1484375 C99.59829977 568.94448021 95.27554002 563.18588768 91 557 C90.04933856 559.85198432 89.75248149 562.05645429 89.53515625 565.03466797 C89.45837646 566.05938202 89.38159668 567.08409607 89.30249023 568.13986206 C89.22329346 569.24612946 89.14409668 570.35239685 89.0625 571.4921875 C88.97750244 572.63027863 88.89250488 573.76836975 88.80493164 574.94094849 C88.53298339 578.58537347 88.26600635 582.23013682 88 585.875 C87.73374469 589.51270111 87.46633392 593.15029707 87.19506836 596.78762817 C87.02621835 599.05227894 86.86026182 601.31714771 86.69750977 603.58224487 C86.62072998 604.61326324 86.5439502 605.64428162 86.46484375 606.70654297 C86.399021 607.61016571 86.33319824 608.51378845 86.26538086 609.4447937 C86.00159817 611.98461214 85.50077859 614.49610707 85 617 C56.95 617 28.9 617 0 617 C0 413.39 0 209.78 0 0 Z M134 283 C133.26136719 283.67417969 132.52273438 284.34835937 131.76171875 285.04296875 C107.19921439 308.29663629 92.41055802 344.19344986 90.82299805 377.74023438 C90.52430777 396.52321171 90.67312352 414.59644755 95 433 C95.17660156 433.76860352 95.35320312 434.53720703 95.53515625 435.32910156 C100.7427256 457.1526746 111.48459447 477.00429216 126 494 C126.67417969 494.80824219 127.34835937 495.61648438 128.04296875 496.44921875 C150.62685413 522.65310762 183.79909995 537.41297621 218 540 C254.75559606 541.82788026 291.95136867 531.70577769 320 507 C320 506.34 320 505.68 320 505 C320.57234375 504.7525 321.1446875 504.505 321.734375 504.25 C324.35010611 502.80683801 326.14773456 501.11783778 328.25 499 C328.95640625 498.29875 329.6628125 497.5975 330.390625 496.875 C332.21710399 495.15889232 332.21710399 495.15889232 332 493 C332.66 493 333.32 493 334 493 C335.38300824 491.52189879 335.38300824 491.52189879 336.7578125 489.5546875 C337.29704346 488.81492676 337.83627441 488.07516602 338.3918457 487.31298828 C338.96378662 486.50845215 339.53572754 485.70391602 340.125 484.875 C340.71176514 484.05112793 341.29853027 483.22725586 341.90307617 482.37841797 C365.80703226 448.4105046 374.87793936 407.68205696 368.47851562 366.57836914 C363.74447656 339.58965413 352.81485741 316.49267488 336 295 C335.29359375 294.0615625 334.5871875 293.123125 333.859375 292.15625 C333.24578125 291.4446875 332.6321875 290.733125 332 290 C331.34 290 330.68 290 330 290 C329.77183594 289.43796875 329.54367187 288.8759375 329.30859375 288.296875 C317.52846098 267.62010465 284.54727422 255.05502205 263 249 C216.33881046 237.52134737 168.80654721 250.12399538 134 283 Z " fill="#000000" transform="translate(1738,248)"/>
<path d="M0 0 C4.19761634 3.74432345 8.27581202 7.57745544 12.203125 11.60546875 C13.20085937 12.57033203 13.20085937 12.57033203 14.21875 13.5546875 C19.65842493 18.85559522 24.86263547 24.34901382 29.203125 30.60546875 C29.203125 31.26546875 29.203125 31.92546875 29.203125 32.60546875 C29.863125 32.60546875 30.523125 32.60546875 31.203125 32.60546875 C31.17992187 31.95489502 31.15671875 31.30432129 31.1328125 30.6340332 C30.91242181 18.63356338 32.15857139 6.73561779 33.203125 -5.20703125 C33.863125 -12.85890625 34.523125 -20.51078125 35.203125 -28.39453125 C63.253125 -28.39453125 91.303125 -28.39453125 120.203125 -28.39453125 C120.203125 119.77546875 120.203125 267.94546875 120.203125 420.60546875 C92.153125 420.60546875 64.103125 420.60546875 35.203125 420.60546875 C34.543125 412.95359375 33.883125 405.30171875 33.203125 397.41796875 C32.99429687 395.0303833 32.78546875 392.64279785 32.5703125 390.18286133 C31.69557668 379.9745495 30.83738534 369.86014846 31.203125 359.60546875 C28.37642112 362.39439522 25.83750717 365.22585163 23.390625 368.35546875 C20.74679836 371.68619614 18.08673672 374.99385124 15.328125 378.23046875 C14.77382812 378.88273437 14.21953125 379.535 13.6484375 380.20703125 C12.203125 381.60546875 12.203125 381.60546875 10.203125 381.60546875 C10.203125 382.26546875 10.203125 382.92546875 10.203125 383.60546875 C7.74311011 386.15230769 4.91253279 388.32939792 2.203125 390.60546875 C1.33171875 391.37503906 0.4603125 392.14460938 -0.4375 392.9375 C-38.43406233 425.89899874 -89.77580966 437.27498551 -139 434.33203125 C-166.07895975 432.32685317 -191.40181405 425.34424255 -215.796875 413.60546875 C-216.51230469 413.2614502 -217.22773437 412.91743164 -217.96484375 412.56298828 C-236.50152115 403.50989789 -254.05401284 391.2072598 -268.234375 376.140625 C-269.87303614 374.47062317 -269.87303614 374.47062317 -272.22265625 372.7265625 C-274.87592803 370.54033098 -276.85059209 368.29571663 -278.984375 365.60546875 C-281.31235245 362.6840102 -283.63360225 359.78997799 -286.109375 356.9921875 C-329.15997651 308.06461243 -344.15884734 237.48812884 -340.5234375 173.97265625 C-335.8599851 110.72420699 -307.63200003 51.29313971 -260.796875 8.60546875 C-246.29904262 -3.83490459 -230.05646061 -14.4329286 -212.74121094 -22.48583984 C-210.85520124 -23.3672723 -208.98669622 -24.27952272 -207.1171875 -25.1953125 C-141.76438794 -56.35287752 -55.20344572 -47.26216792 0 0 Z M-177.796875 66.60546875 C-178.69792969 67.08628906 -179.59898437 67.56710937 -180.52734375 68.0625 C-212.3390328 86.0700956 -235.08890953 118.80904277 -244.796875 153.60546875 C-255.14633236 193.72037875 -250.26470506 236.79332099 -229.859375 273.04296875 C-223.62678245 283.49960351 -216.13546187 292.76799207 -207.796875 301.60546875 C-206.71212891 302.80429687 -206.71212891 302.80429687 -205.60546875 304.02734375 C-180.86320597 330.31861452 -144.88512083 342.51741602 -109.51245117 343.65014648 C-76.35613586 344.14064618 -41.21253777 332.61669074 -16.796875 309.60546875 C-16.796875 308.94546875 -16.796875 308.28546875 -16.796875 307.60546875 C-16.23226562 307.3734375 -15.66765625 307.14140625 -15.0859375 306.90234375 C7.43643375 294.14222898 19.46088074 258.32543925 25.80029297 235.45068359 C36.25435258 195.21964944 29.0649948 149.34753965 8.31811523 113.6159668 C-10.35742264 82.54047664 -40.20545711 60.65774415 -75.1953125 51.578125 C-110.90157803 43.46380677 -145.99065809 49.39793271 -177.796875 66.60546875 Z " fill="#000000" transform="translate(1510.796875,444.39453125)"/>
<path d="M0 0 C0.71027344 0.29600098 1.42054688 0.59200195 2.15234375 0.89697266 C32.13072716 13.62403405 59.11200939 35.33486354 79 61 C79.42394043 61.54221191 79.84788086 62.08442383 80.28466797 62.64306641 C115.7211626 108.25606261 133.1375294 170.05206693 126.17822266 227.54199219 C122.33841665 254.66158335 122.33841665 254.66158335 118 259 C116.21738851 259.10246674 114.43068094 259.13399971 112.64513302 259.1386652 C111.47620445 259.14413964 110.30727589 259.14961409 109.10292524 259.15525442 C107.8023704 259.15623253 106.50181557 259.15721064 105.16184998 259.15821838 C103.77917733 259.16278005 102.39650606 259.16777947 101.01383644 259.17318195 C97.1965716 259.18681761 93.3793157 259.19419703 89.56203282 259.20060861 C85.45225349 259.20858883 81.34249293 259.22229473 77.23272705 259.23532104 C70.10636925 259.25711767 62.98000958 259.27525045 55.85363579 259.29092598 C45.54997391 259.31359568 35.24633278 259.34174246 24.94268847 259.37124526 C8.22750784 259.41895682 -8.48768125 259.46221131 -25.20288086 259.50268555 C-41.44442403 259.54202237 -57.68595966 259.58344421 -73.92749023 259.62768555 C-74.92787103 259.63040982 -75.92825182 259.63313409 -76.95894719 259.63594092 C-81.97734052 259.6496201 -86.99573374 259.66334043 -92.0141269 259.67708123 C-133.67606892 259.79110198 -175.33802717 259.89789891 -217 260 C-216.21005948 262.72775326 -215.41707114 265.45455809 -214.62231445 268.1809082 C-214.40023567 268.94895027 -214.17815689 269.71699234 -213.94934845 270.50830841 C-212.37162208 275.90848199 -210.57011038 281.08412635 -208.1875 286.1875 C-207.848396 286.92887207 -207.50929199 287.67024414 -207.15991211 288.43408203 C-190.3993393 324.42968361 -162.28311413 350.16113626 -125.2902832 363.98217773 C-113.12562407 368.22923882 -99.8619618 370.5700737 -87 371 C-86.01257813 371.0515625 -85.02515625 371.103125 -84.0078125 371.15625 C-39.30702803 372.44260351 -0.23761851 353.22840295 33 325 C36.1888108 326.40704811 38.32139332 328.07716321 40.77124023 330.54418945 C41.49556747 331.26866776 42.21989471 331.99314606 42.96617126 332.73957825 C43.73917068 333.52290024 44.5121701 334.30622223 45.30859375 335.11328125 C46.51419701 336.32312935 46.51419701 336.32312935 47.74415588 337.55741882 C50.3133367 340.13778876 52.87549016 342.72501188 55.4375 345.3125 C57.15904403 347.04407842 58.88104412 348.77520355 60.60351562 350.50585938 C63.77163936 353.69031077 66.93712852 356.87732972 70.09936523 360.06762695 C71.39949078 361.37850331 72.69969235 362.68930427 74 364 C74.75283264 364.75945671 74.75283264 364.75945671 75.52087402 365.53425598 C77.70997645 367.73490182 79.92316795 369.89187114 82.2265625 371.97265625 C82.7834375 372.47990234 83.3403125 372.98714844 83.9140625 373.50976562 C85.06091686 374.55057523 86.20937409 375.58962122 87.359375 376.62695312 C90.22903359 379.24635079 92.80868614 381.75965291 95 385 C92.91705951 389.6021514 89.73784769 392.60552106 86.1875 396.125 C85.51243408 396.79442627 84.83736816 397.46385254 84.1418457 398.15356445 C78.14130567 404.01178805 71.87568782 409.18477889 65 414 C64.01290039 414.69706055 64.01290039 414.69706055 63.00585938 415.40820312 C27.0203506 440.62796412 -14.17635975 455.87203389 -58 460 C-59.10472656 460.11085938 -60.20945312 460.22171875 -61.34765625 460.3359375 C-121.35693378 465.52972292 -182.20440406 447.16632045 -228.41699219 408.38525391 C-232.85480703 404.5018237 -236.92324099 400.25573867 -241 396 C-243.22857687 393.74789366 -245.45070425 391.50593029 -247.78125 389.359375 C-264.70905491 373.50879404 -277.33938787 351.8855247 -287 331 C-287.29712891 330.3709375 -287.59425781 329.741875 -287.90039062 329.09375 C-299.39050655 304.66160808 -305.82835726 278.7339852 -309 252 C-309.09571289 251.29230469 -309.19142578 250.58460938 -309.29003906 249.85546875 C-310.39714144 240.74469075 -310.24393338 231.53848081 -310.25 222.375 C-310.25067474 221.46026917 -310.25134949 220.54553833 -310.25204468 219.60308838 C-310.23518791 205.19984923 -309.60828922 191.19662031 -307 177 C-306.76651855 175.64841797 -306.76651855 175.64841797 -306.52832031 174.26953125 C-296.73371318 118.82540785 -267.09695922 65.41770636 -222 31 C-221.4529541 30.57654297 -220.9059082 30.15308594 -220.34228516 29.71679688 C-158.69768902 -17.82050611 -72.07652035 -30.25215311 0 0 Z M-183.8125 115.76953125 C-202.07498188 134.73242082 -215.2723664 160.9065648 -219 187 C-134.19 187 -49.38 187 38 187 C35.62370208 165.61331869 29.08339957 143.99244727 17 126 C16.61505371 125.42475586 16.23010742 124.84951172 15.83349609 124.25683594 C-2.01047734 97.92331019 -26.06041948 81.54440625 -57.03515625 74.2890625 C-105.02604208 65.17937578 -149.76823477 82.24538674 -183.8125 115.76953125 Z " fill="#000000" transform="translate(617,418)"/>
<path d="M0 0 C0.75708252 0.00182281 1.51416504 0.00364563 2.29418945 0.00552368 C39.71661584 0.15632549 76.10323243 9.37072768 104.8125 34.3125 C105.75996094 35.06080078 105.75996094 35.06080078 106.7265625 35.82421875 C112.27233236 40.24310843 116.44464701 45.76688666 120.8125 51.3125 C121.410625 52.03308594 122.00875 52.75367188 122.625 53.49609375 C158.7524947 97.73554906 164.00756612 162.12608227 163.92602539 216.80053711 C163.92574292 219.46281536 163.92585853 222.12509086 163.9264679 224.78736877 C163.92698914 230.49203401 163.92388439 236.19668769 163.91823006 241.90135002 C163.91006049 250.14906496 163.90749428 258.39677439 163.90624207 266.64449293 C163.90406007 280.02984415 163.89742322 293.41518922 163.88793945 306.80053711 C163.8787432 319.79370086 163.87167322 332.78686294 163.86743164 345.7800293 C163.86703756 346.98385123 163.86703756 346.98385123 163.86663551 348.21199279 C163.86533036 352.2386325 163.86406668 356.26527223 163.86282361 360.29191196 C163.85247757 393.63211341 163.83405366 426.97230344 163.8125 460.3125 C134.1125 460.3125 104.4125 460.3125 73.8125 460.3125 C73.78744385 452.97040283 73.7623877 445.62830566 73.73657227 438.0637207 C73.6554978 414.49847643 73.56985545 390.93325099 73.48138306 367.36803343 C73.46761557 363.69986421 73.45388816 360.03169485 73.44018555 356.36352539 C73.43745724 355.63334268 73.43472894 354.90315996 73.43191796 354.1508505 C73.38799487 342.37010135 73.34730945 330.58934318 73.30784739 318.80857835 C73.26720029 306.69586034 73.22301166 294.58315888 73.17562145 282.47046536 C73.149143 275.67732556 73.12423135 268.88418797 73.10342598 262.09102821 C73.08363417 255.68150452 73.05942833 249.27201186 73.03200912 242.8625164 C73.02275649 240.52507219 73.01504069 238.18762125 73.00908089 235.85016632 C72.98911433 208.7336263 72.98911433 208.7336263 70.5625 181.75 C70.43391602 180.80439209 70.30533203 179.85878418 70.17285156 178.88452148 C67.9015889 163.1810744 63.96957778 148.50095495 56.8125 134.3125 C56.27882813 133.24515625 55.74515625 132.1778125 55.1953125 131.078125 C44.90768763 112.07801399 27.92063724 99.75317726 7.58203125 93.28515625 C-4.28866922 90.13322653 -16.18310421 88.94357712 -28.4375 89 C-30.34329834 89.00737183 -30.34329834 89.00737183 -32.28759766 89.01489258 C-59.68596694 89.35549452 -84.14374367 97.96626358 -104.3125 116.9375 C-123.92094849 137.33280436 -132.23568719 165.79963982 -135.1875 193.3125 C-135.27480346 194.12255336 -135.36210691 194.93260672 -135.45205593 195.76720715 C-136.52732404 207.52222448 -136.3640995 219.31116764 -136.39282227 231.10473633 C-136.40241395 233.60908668 -136.41242477 236.11343545 -136.42282104 238.61778259 C-136.44417661 243.98743472 -136.46264727 249.35708461 -136.47842598 254.72675514 C-136.50124378 262.49017218 -136.5293693 270.25356305 -136.55874526 278.01695772 C-136.60627623 290.61586709 -136.64957915 303.21478725 -136.69018555 315.8137207 C-136.7296146 328.04452349 -136.77105828 340.27531674 -136.81518555 352.50610352 C-136.81790982 353.26138499 -136.82063409 354.01666646 -136.82344092 354.79483525 C-136.83712161 358.58427122 -136.85084165 362.37370704 -136.86458123 366.1631428 C-136.97831799 397.54624306 -137.08439141 428.92936257 -137.1875 460.3125 C-166.8875 460.3125 -196.5875 460.3125 -227.1875 460.3125 C-227.1875 312.1425 -227.1875 163.9725 -227.1875 11.3125 C-199.1375 11.3125 -171.0875 11.3125 -142.1875 11.3125 C-139.1875 45.3125 -139.1875 45.3125 -138.1875 58.3125 C-137.8575 58.9725 -137.5275 59.6325 -137.1875 60.3125 C-136.44886719 59.49007812 -135.71023437 58.66765625 -134.94921875 57.8203125 C-109.99836877 30.25485249 -79.64755378 12.59709865 -43.4375 4.1875 C-42.77177979 4.02870361 -42.10605957 3.86990723 -41.42016602 3.70629883 C-27.77607941 0.6794102 -13.92830112 -0.07039756 0 0 Z " fill="#000000" transform="translate(2720.1875,404.6875)"/>
<path d="M0 0 C13.18228627 -1.0061368 26.35521866 -1.76470947 39.56834698 -2.22792339 C45.70999791 -2.45060999 51.82509729 -2.75042883 57.95141602 -3.24389648 C96.23307971 -6.24584881 96.23307971 -6.24584881 107.57047272 1.8312912 C118.3259648 11.60548371 125.03883006 25.02235257 131.40591431 37.8777771 C134.48310303 44.07617047 138.17919604 49.65104911 142.15625 55.3125 C143.2408456 56.95230953 144.31914138 58.59630734 145.39038086 60.24487305 C159.27454711 81.48033966 173.40503159 102.54528947 187.63902283 123.54753113 C191.11724602 128.68210922 194.56628522 133.83555524 198 139 C202.55482845 132.55577343 206.99758203 126.05246742 211.32421875 119.453125 C212.19286308 118.13245026 212.19286308 118.13245026 213.07905579 116.78509521 C214.31183987 114.91066694 215.54402032 113.03584154 216.77563477 111.16064453 C220.03839727 106.19337922 223.30614189 101.22939495 226.57421875 96.265625 C227.22131805 95.28267456 227.86841736 94.29972412 228.53512573 93.2869873 C234.037539 84.93336106 239.57933618 76.60672064 245.14205933 68.29318237 C250.59436902 60.1422183 256.00456003 51.96443904 261.390625 43.76953125 C262.03817749 42.784758 262.68572998 41.79998474 263.35290527 40.78536987 C266.57339269 35.88718381 269.79096514 30.98712364 273.00390625 26.08398438 C274.19520898 24.27076532 275.38661089 22.45761142 276.578125 20.64453125 C277.37237885 19.42900322 277.37237885 19.42900322 278.18267822 18.18891907 C279.22637941 16.60297661 280.29527069 15.03333099 281.38842773 13.48106384 C283.09731427 10.98879675 283.09731427 10.98879675 284.35180664 7.99171448 C286.23644396 4.3780419 287.68360546 2.40925794 291 0 C298.57105783 -2.03750229 306.77524262 -1.27533373 314.53125 -1.07421875 C316.85148424 -1.05368803 319.17176635 -1.03803672 321.49206543 -1.02705383 C327.58265141 -0.98516519 333.67032576 -0.87721467 339.75976562 -0.75531006 C345.98006807 -0.64253662 352.20084371 -0.5924919 358.421875 -0.53710938 C370.61585874 -0.41933504 382.80768675 -0.23173726 395 0 C393.42048773 4.12348627 391.42192149 7.6168566 388.9375 11.25 C388.50832275 11.88566895 388.07914551 12.52133789 387.63696289 13.17626953 C386.09641084 15.4543453 384.54824234 17.72714423 383 20 C381.7185339 21.88787417 380.43729756 23.7759043 379.15625 25.6640625 C375.90023664 30.45967271 372.63927196 35.25188899 369.37599182 40.04255676 C366.08368531 44.87610948 362.79559567 49.7125204 359.50805664 54.54931641 C352.89989237 64.27134268 346.2832457 73.98753342 339.65917969 83.69873047 C332.09429341 94.79110848 324.54784571 105.89602319 317 117 C308.22783865 129.90512285 299.45216919 142.80778804 290.65917969 155.69873047 C283.83990397 165.69782116 277.03596576 175.70733011 270.23193359 185.71679688 C266.68493153 190.93448269 263.13709582 196.15160157 259.58929443 201.3687439 C257.76652646 204.04919128 255.94381222 206.7296752 254.12109375 209.41015625 C253.21508423 210.74252319 253.21508423 210.74252319 252.29077148 212.10180664 C251.86481689 212.72821045 251.4388623 213.35461426 251 214 C257.71313603 224.82763876 264.92347518 235.32633248 272.0625 245.875 C283.46341324 262.73226596 294.78409081 279.64058033 306.04396057 296.59234619 C308.23344334 299.88811831 310.42420497 303.18303914 312.61523438 306.4777832 C313.71304977 308.12958878 314.81004356 309.78194067 315.90625 311.43481445 C323.73101649 323.23257133 323.73101649 323.23257133 331.8828125 334.8046875 C338.80820556 344.36347097 345.1675974 354.31007174 351.625 364.1875 C360.52657168 378.01486554 360.52657168 378.01486554 369.9765625 391.46484375 C376.6669378 400.45789038 382.61674772 409.99856514 388.75 419.375 C391.34607662 423.34304379 393.94551786 427.30885411 396.546875 431.2734375 C397.42977203 432.62663589 397.42977203 432.62663589 398.33050537 434.00717163 C400.58251447 437.43925836 402.79236238 440.7476878 405.40332031 443.92041016 C407 446 407 446 407 449 C308.59653837 456.6853012 308.59653837 456.6853012 291.90141296 443.14736938 C283.43284458 434.23567011 279.33638673 422.60381874 275.40039062 411.16162109 C272.019546 401.81392516 266.17357281 394.11928135 260.38574219 386.1289978 C257.25847985 381.76914105 254.28384428 377.30814852 251.296875 372.8515625 C250.70161011 371.96907333 250.10634521 371.08658417 249.49304199 370.17735291 C241.86934623 358.87183144 234.39469824 347.46769813 226.90811157 336.07116699 C217.41133401 321.61684553 207.81415292 307.24108278 198 293 C194.4613748 297.26117997 191.37374923 301.75837749 188.28515625 306.34765625 C187.72642319 307.17470566 187.16769012 308.00175507 186.59202576 308.85386658 C184.74627311 311.58834952 182.90417874 314.32527188 181.0625 317.0625 C180.42296387 318.0114917 179.78342773 318.9604834 179.12451172 319.93823242 C168.88513784 335.13504518 158.76851751 350.40978973 148.70947266 365.72637939 C137.79600817 382.33958399 126.72527516 398.84265691 115.57861328 415.3001709 C114.95583496 416.22076294 114.33305664 417.14135498 113.69140625 418.08984375 C113.19886699 418.79310413 112.70632772 419.49636452 112.19886303 420.22093582 C109.21528252 424.53201118 106.51508503 428.81634124 104.13191223 433.48944092 C96.76687813 447.27153496 96.76687813 447.27153496 90.46273232 450.16424751 C83.34760382 451.92441316 76.14039317 451.41520871 68.8828125 451.05078125 C66.57125429 451.01154342 64.25951972 450.98168371 61.94772339 450.96073914 C55.9028709 450.88107152 49.86885544 450.67536501 43.82824707 450.44195557 C37.64870875 450.22593551 31.46739296 450.13097426 25.28515625 450.02539062 C13.1853773 449.80110415 1.09359413 449.44342253 -11 449 C-10.28312244 445.89023012 -9.35722452 443.71747563 -7.58935547 441.04638672 C-7.08213959 440.27415268 -6.57492371 439.50191864 -6.05233765 438.70628357 C-5.4962381 437.87250687 -4.94013855 437.03873016 -4.3671875 436.1796875 C-3.78780426 435.30163956 -3.20842102 434.42359161 -2.61148071 433.51893616 C-0.70514238 430.63372331 1.20966752 427.75424849 3.125 424.875 C4.4579651 422.86289891 5.79064475 420.8506087 7.12304688 418.83813477 C17.15863782 403.69799909 27.30348988 388.63326742 37.51141357 373.60897827 C43.72954599 364.45684998 49.93221034 355.29429422 56.125 346.125 C56.73110107 345.22768158 57.33720215 344.33036316 57.96166992 343.40585327 C68.0307966 328.48926528 77.96074353 313.4842528 87.84387207 298.44396973 C97.46047051 283.8120806 107.19285274 269.26675537 117.05332947 254.79832458 C122.13292044 247.34324013 127.1832105 239.868331 132.23565674 232.39483643 C134.26827564 229.38835428 136.30155684 226.38232037 138.33485413 223.376297 C140.22337333 220.58429081 142.11168993 217.79214763 144 215 C141.53090082 210.59444659 138.97084203 206.3501939 136.12109375 202.17578125 C135.75697891 201.64075485 135.39286407 201.10572845 135.01771545 200.55448914 C133.82669219 198.80552231 132.63208546 197.05903522 131.4375 195.3125 C130.5895674 194.0685477 129.74191654 192.82440331 128.89453125 191.58007812 C127.13634109 188.99876847 125.37694969 186.41828399 123.61669922 183.83837891 C119.95877984 178.47519801 116.31566879 173.10198563 112.6723938 167.72885132 C110.69896068 164.81876048 108.72442077 161.90942079 106.75 159 C105.95832811 157.83333688 105.16666144 156.66667021 104.375 155.5 C103.983125 154.9225 103.59125 154.345 103.1875 153.75 C95.66666667 142.66666667 88.14583333 131.58333333 80.625 120.5 C80.03720261 119.63377266 80.03720261 119.63377266 79.43753052 118.75004578 C78.64576113 117.5832272 77.85399274 116.41640794 77.06222534 115.24958801 C75.08463845 112.33524008 73.10703434 109.42090383 71.12939453 106.5065918 C67.54802132 101.22893149 63.96677843 95.95118297 60.38616943 90.67300415 C51.74168309 77.930182 43.09296987 65.19028082 34.43115234 52.45922852 C30.62670682 46.86647112 26.82636135 41.27096843 23.03125 35.671875 C22.61121704 35.05231934 22.19118408 34.43276367 21.75842285 33.79443359 C19.73207311 30.80552384 17.70627916 27.81624104 15.68164062 24.82617188 C14.94107422 23.73369141 14.20050781 22.64121094 13.4375 21.515625 C12.715625 20.45021484 11.99375 19.38480469 11.25 18.28710938 C9.66005948 15.96430565 8.05890194 13.65406276 6.4375 11.35351562 C6.01927979 10.75794861 5.60105957 10.16238159 5.17016602 9.54876709 C4.00133335 7.88759637 2.82699497 6.23030358 1.65234375 4.57324219 C0 2 0 2 0 0 Z " fill="#000000" transform="translate(767,416)"/>
<path d="M0 0 C30.03 0 60.06 0 91 0 C91 148.17 91 296.34 91 449 C60.97 449 30.94 449 0 449 C0 300.83 0 152.66 0 0 Z " fill="#000000" transform="translate(2287,416)"/>
<path d="M0 0 C19.05189571 -0.64063392 35.14479319 6.82082772 49.01953125 19.40234375 C55.77365987 26.28390876 59.81019912 34.38060068 63.546875 43.16015625 C63.93101562 44.0625 64.31515625 44.96484375 64.7109375 45.89453125 C69.16221112 58.9571473 67.90514927 75.66311532 62.546875 88.16015625 C62.14597656 89.16046875 61.74507812 90.16078125 61.33203125 91.19140625 C54.70853481 106.0894736 41.4795945 117.82110629 26.5625 124.12890625 C8.98345346 130.14039367 -9.02087766 129.72341293 -25.765625 121.53515625 C-32.59652636 118.01903448 -38.12672757 113.72460496 -43.453125 108.16015625 C-44.07316406 107.57105469 -44.69320312 106.98195313 -45.33203125 106.375 C-49.45204156 102.18125348 -52.11295638 97.41571439 -54.765625 92.22265625 C-55.10352051 91.56644287 -55.44141602 90.91022949 -55.78955078 90.23413086 C-62.42989612 76.62562566 -62.88800062 58.75291084 -58.328125 44.41015625 C-52.58049673 27.89882514 -40.93509585 14.91604232 -25.453125 6.91015625 C-17.01252578 2.89337363 -9.33529118 0.60946965 0 0 Z " fill="#000000" transform="translate(3041.453125,753.83984375)"/>
<path d="M0 0 C1.17175781 0.5259375 1.17175781 0.5259375 2.3671875 1.0625 C15.92209782 7.81650376 24.44140467 19.41626578 29.2734375 33.4921875 C33.23846192 47.17791696 31.93926047 62.02183981 25.64453125 74.73828125 C17.89841391 88.42378078 6.23553032 98.00978523 -9 102.25 C-24.70341511 105.30267789 -40.65971528 102.9391644 -54 94 C-65.82774567 85.10317664 -72.79096941 73.38807163 -76 59 C-77.50004204 42.11883721 -74.45907681 27.92698406 -63.96484375 14.37109375 C-48.79129788 -3.58560691 -21.55167249 -10.26913548 0 0 Z " fill="#000000" transform="translate(2355,250)"/>
</svg>
